<?xml version="1.0" encoding="UTF-8"?>
<svg id="Layer_1" xmlns="http://www.w3.org/2000/svg" version="1.1" xmlns:xlink="http://www.w3.org/1999/xlink" viewBox="0 0 841.89 514.15">
  <!-- Generator: Adobe Illustrator 29.5.1, SVG Export Plug-In . SVG Version: 2.1.0 Build 141)  -->
  <defs>
    <style>
      .st0 {
        fill: url(#linear-gradient2);
      }

      .st1 {
        fill: url(#linear-gradient1);
      }

      .st2 {
        fill: #255f99;
      }

      .st3 {
        fill: url(#linear-gradient);
      }
    </style>
    <linearGradient id="linear-gradient" x1="279.83" y1="273.59" x2="319.1" y2="273.59" gradientUnits="userSpaceOnUse">
      <stop offset="0" stop-color="#00af67"/>
      <stop offset=".28" stop-color="#00ab65"/>
      <stop offset=".49" stop-color="#00a160"/>
      <stop offset=".69" stop-color="#009158"/>
      <stop offset=".88" stop-color="#007a4c"/>
      <stop offset="1" stop-color="#006643"/>
    </linearGradient>
    <linearGradient id="linear-gradient1" x1="279.83" y1="248.67" x2="322.37" y2="248.67" gradientUnits="userSpaceOnUse">
      <stop offset="0" stop-color="#009957"/>
      <stop offset="1" stop-color="#00af67"/>
    </linearGradient>
    <linearGradient id="linear-gradient2" x1="239.1" y1="257.07" x2="289.71" y2="257.07" gradientUnits="userSpaceOnUse">
      <stop offset="0" stop-color="#00af67"/>
      <stop offset=".38" stop-color="#00ac64"/>
      <stop offset=".64" stop-color="#00a35e"/>
      <stop offset=".8" stop-color="#009957"/>
    </linearGradient>
  </defs>
  <g>
    <path class="st2" d="M335.69,257.13c0-4.94.5-9.01,1.51-12.21,1.01-3.2,2.62-5.7,4.85-7.51,2.23-1.81,5.1-3.06,8.61-3.76,3.51-.69,7.77-1.04,12.78-1.04,2.57,0,5.06.09,7.46.26,2.4.18,4.85.47,7.36.89,2.09.35,3.43.82,4.02,1.41.59.59.89,1.41.89,2.45v2.61c-1.32-.62-3.17-1.16-5.53-1.62-2.36-.45-4.8-.78-7.3-.99-2.5-.21-4.73-.31-6.68-.31-4.87,0-8.75.57-11.63,1.72-2.89,1.15-4.96,3.15-6.21,6-1.25,2.85-1.88,6.89-1.88,12.1s.59,9.27,1.77,12.16c1.18,2.89,3.25,4.92,6.21,6.1,2.96,1.18,7.04,1.77,12.26,1.77,1.88,0,4-.1,6.37-.31,2.36-.21,4.66-.54,6.89-.99,2.23-.45,4.14-.92,5.74-1.41v2.4c0,.9-.31,1.69-.94,2.35-.63.66-2.02,1.13-4.17,1.41-2.44.49-4.87.82-7.3.99-2.44.17-4.94.26-7.51.26-5.15,0-9.5-.36-13.04-1.09s-6.38-1.98-8.5-3.76c-2.12-1.77-3.65-4.26-4.59-7.46-.94-3.2-1.41-7.34-1.41-12.42Z"/>
    <path class="st2" d="M413.11,281.85c-4.17,0-7.86-.31-11.06-.94-3.2-.63-5.93-1.79-8.19-3.5-2.26-1.7-3.98-4.19-5.16-7.46-1.18-3.27-1.77-7.58-1.77-12.94s.64-9.79,1.93-13.09,3.11-5.79,5.48-7.46c2.36-1.67,5.2-2.78,8.5-3.34,3.3-.56,7.01-.83,11.11-.83s7.75.3,10.96.89c3.2.59,5.93,1.74,8.19,3.44,2.26,1.7,3.98,4.19,5.16,7.46,1.18,3.27,1.77,7.58,1.77,12.94s-.64,9.88-1.93,13.15-3.1,5.76-5.43,7.46c-2.33,1.71-5.15,2.84-8.45,3.39-3.31.56-7.01.83-11.11.83ZM413.42,277.37c2.92,0,5.53-.26,7.83-.78,2.29-.52,4.22-1.48,5.79-2.87,1.57-1.39,2.75-3.43,3.55-6.1.8-2.68,1.2-6.21,1.2-10.59s-.4-7.81-1.2-10.49c-.8-2.68-1.98-4.73-3.55-6.16s-3.5-2.38-5.79-2.87c-2.3-.49-4.9-.73-7.83-.73s-5.62.24-7.88.73c-2.26.49-4.16,1.44-5.69,2.87-1.53,1.43-2.7,3.48-3.49,6.16-.8,2.68-1.2,6.17-1.2,10.49s.4,7.91,1.2,10.59c.8,2.68,1.96,4.71,3.49,6.1,1.53,1.39,3.43,2.35,5.69,2.87,2.26.52,4.89.78,7.88.78Z"/>
    <path class="st2" d="M448.69,281.13v-42.05c0-2.36.43-3.93,1.3-4.7s2.31-1.18,4.33-1.25c2.71-.07,5.72-.1,9.03-.1h9.91c3.3,0,6.21.07,8.71.21,2.85.14,5.27.71,7.25,1.72,1.98,1.01,3.48,2.5,4.49,4.49,1.01,1.98,1.51,4.51,1.51,7.56,0,3.48-.61,6.37-1.83,8.66-1.22,2.29-2.92,3.96-5.11,5.01-2.19,1.04-4.82,1.57-7.88,1.57h-21.6c0-1.18.01-2.09.05-2.71.03-.62.17-1.08.42-1.36s.68-.42,1.3-.42h17.01c1.67,0,3.22-.31,4.64-.94,1.43-.63,2.57-1.74,3.44-3.34.87-1.6,1.3-3.79,1.3-6.57s-.56-4.85-1.67-6.42c-1.11-1.57-2.96-2.42-5.53-2.56-2.16-.21-4.56-.33-7.2-.37-2.64-.03-5.13-.03-7.46,0-2.33.04-4.3.09-5.89.16-.35,0-.85.16-1.51.47-.66.31-.99.99-.99,2.03v40.9h-8.04Z"/>
    <path class="st2" d="M515.57,281.13v-19.51l-17.63-25.88-1.88-2.61h10.64l14.61,22.85,14.81-22.85h7.3l-2.29,2.92-17.63,25.56v15.86c.07.9,0,1.62-.21,2.14-.21.52-.56.9-1.04,1.15-.49.24-1.25.37-2.29.37h-4.38Z"/>
    <path class="st2" d="M548.95,281.13v-43.93c0-1.88.19-3.03.58-3.44.38-.42,1.34-.63,2.87-.63h5.74l17.22,38.29.21.73.21-.31.21-.73,17.22-37.98h6.05c1.46,0,2.42.16,2.87.47.45.31.68,1.2.68,2.66v41.63c0,.97-.09,1.67-.26,2.09-.18.42-.49.71-.94.89-.45.17-1.13.26-2.04.26h-4.9v-39.23l-.42,1.46-17.01,37.77h-5.43l-16.69-37.04-.31-1.46v38.5h-5.84Z"/>
  </g>
  <g>
    <path class="st3" d="M317.17,275.46c4.58-7.98-.17-15.85-2.16-17.65-.58-.53-1.69-1.61-2.99-2.91,1.05,1.45.92,3.48-.38,4.79l-31.8,31.8c4.11.87,8.48,1.04,12.99.32,9.3-1.49,17.38-6.68,22.73-13.96.15-.22.33-.48.54-.76.37-.53.73-1.08,1.07-1.63Z"/>
    <path class="st1" d="M287.17,221.88c-2.25,0-4.44.21-6.57.62-.26.05-.52.1-.77.15l3.13,3.13,20.65,20.65,8.02,8.02c.14.14.27.29.38.45,1.31,1.3,2.42,2.37,2.99,2.91,2.06,1.93,6.74,9.68,2.16,17.65,2.76-4.48,4.54-9.6,5.04-15.06,1.92-20.94-14.5-38.53-35.04-38.53Z"/>
    <path class="st0" d="M275.93,266.7c-1.53-2.87-2.41-6.14-2.41-9.62s.87-6.76,2.41-9.62c2.8-5.23,7.8-9.11,13.77-10.37l-8.88-8.88c-2.51-2.51-5.8-3.77-9.09-3.77s-6.58,1.26-9.09,3.77l-4.55,4.55-1.37,1.37-13.33,13.33-.53.53c-.42.42-.81.87-1.16,1.33-3.47,4.58-3.47,10.95,0,15.52.35.46.74.91,1.16,1.33l.53.53,13.33,13.33,1.37,1.37,4.55,4.55c2.51,2.51,5.8,3.77,9.09,3.77,3.29,0,6.58-1.26,9.09-3.77l8.88-8.88c-5.97-1.27-10.97-5.14-13.77-10.37Z"/>
  </g>
</svg>