<?xml version="1.0" encoding="UTF-8"?>
<svg id="Layer_1" xmlns="http://www.w3.org/2000/svg" version="1.1" xmlns:xlink="http://www.w3.org/1999/xlink" viewBox="0 0 841.89 514.15">
  <!-- Generator: Adobe Illustrator 29.5.1, SVG Export Plug-In . SVG Version: 2.1.0 Build 141)  -->
  <defs>
    <style>
      .st0 {
        fill: #fff;
      }

      .st1 {
        fill: url(#linear-gradient1);
      }

      .st2 {
        fill: url(#linear-gradient);
      }
    </style>
    <linearGradient id="linear-gradient" x1="-5.88" y1="257.07" x2="847.77" y2="257.07" gradientUnits="userSpaceOnUse">
      <stop offset="0" stop-color="#15a36e"/>
      <stop offset="1" stop-color="#158b6e"/>
    </linearGradient>
    <linearGradient id="linear-gradient1" x1="281.34" y1="274.03" x2="321.66" y2="274.03" gradientUnits="userSpaceOnUse">
      <stop offset="0" stop-color="#fff"/>
      <stop offset=".38" stop-color="#fcfcfc"/>
      <stop offset=".58" stop-color="#f4f5f5"/>
      <stop offset=".74" stop-color="#e7e7e8"/>
      <stop offset=".88" stop-color="#d3d5d6"/>
      <stop offset="1" stop-color="#bcbec0"/>
    </linearGradient>
  </defs>
  <rect class="st2" x="-5.88" y="-8.17" width="853.66" height="530.49"/>
  <g>
    <g>
      <path class="st0" d="M335.28,257.13c0-4.94.5-9.01,1.51-12.21,1.01-3.2,2.62-5.7,4.85-7.51,2.23-1.81,5.1-3.06,8.61-3.76,3.51-.69,7.77-1.04,12.78-1.04,2.57,0,5.06.09,7.46.26,2.4.18,4.85.47,7.36.89,2.09.35,3.43.82,4.02,1.41.59.59.89,1.41.89,2.45v2.61c-1.32-.62-3.17-1.16-5.53-1.62-2.36-.45-4.8-.78-7.3-.99-2.5-.21-4.73-.31-6.68-.31-4.87,0-8.75.57-11.63,1.72-2.89,1.15-4.96,3.15-6.21,6-1.25,2.85-1.88,6.89-1.88,12.1s.59,9.27,1.77,12.16c1.18,2.89,3.25,4.92,6.21,6.1,2.96,1.18,7.04,1.77,12.26,1.77,1.88,0,4-.1,6.37-.31,2.36-.21,4.66-.54,6.89-.99,2.23-.45,4.14-.92,5.74-1.41v2.4c0,.9-.31,1.69-.94,2.35-.63.66-2.02,1.13-4.17,1.41-2.44.49-4.87.82-7.3.99-2.44.17-4.94.26-7.51.26-5.15,0-9.5-.36-13.04-1.09-3.55-.73-6.38-1.98-8.5-3.76-2.12-1.77-3.65-4.26-4.59-7.46-.94-3.2-1.41-7.34-1.41-12.42Z"/>
      <path class="st0" d="M412.7,281.85c-4.17,0-7.86-.31-11.06-.94-3.2-.63-5.93-1.79-8.19-3.5-2.26-1.7-3.98-4.19-5.16-7.46-1.18-3.27-1.77-7.58-1.77-12.94s.64-9.79,1.93-13.09c1.29-3.3,3.11-5.79,5.48-7.46,2.36-1.67,5.2-2.78,8.5-3.34,3.3-.56,7.01-.83,11.11-.83s7.75.3,10.96.89c3.2.59,5.93,1.74,8.19,3.44,2.26,1.7,3.98,4.19,5.16,7.46,1.18,3.27,1.77,7.58,1.77,12.94s-.64,9.88-1.93,13.15-3.1,5.76-5.43,7.46c-2.33,1.71-5.15,2.84-8.45,3.39-3.31.56-7.01.83-11.11.83ZM413.01,277.37c2.92,0,5.53-.26,7.83-.78,2.29-.52,4.22-1.48,5.79-2.87,1.57-1.39,2.75-3.43,3.55-6.1.8-2.68,1.2-6.21,1.2-10.59s-.4-7.81-1.2-10.49c-.8-2.68-1.98-4.73-3.55-6.16-1.57-1.43-3.5-2.38-5.79-2.87-2.3-.49-4.9-.73-7.83-.73s-5.62.24-7.88.73c-2.26.49-4.16,1.44-5.69,2.87-1.53,1.43-2.7,3.48-3.49,6.16-.8,2.68-1.2,6.17-1.2,10.49s.4,7.91,1.2,10.59c.8,2.68,1.96,4.71,3.49,6.1,1.53,1.39,3.43,2.35,5.69,2.87,2.26.52,4.89.78,7.88.78Z"/>
      <path class="st0" d="M448.28,281.13v-42.05c0-2.36.43-3.93,1.3-4.7s2.31-1.18,4.33-1.25c2.71-.07,5.72-.1,9.03-.1h9.91c3.3,0,6.21.07,8.71.21,2.85.14,5.27.71,7.25,1.72,1.98,1.01,3.48,2.5,4.49,4.49,1.01,1.98,1.51,4.51,1.51,7.56,0,3.48-.61,6.37-1.83,8.66-1.22,2.29-2.92,3.96-5.11,5.01-2.19,1.04-4.82,1.57-7.88,1.57h-21.6c0-1.18.01-2.09.05-2.71.03-.62.17-1.08.42-1.36s.68-.42,1.3-.42h17.01c1.67,0,3.22-.31,4.64-.94,1.43-.63,2.57-1.74,3.44-3.34.87-1.6,1.3-3.79,1.3-6.57s-.56-4.85-1.67-6.42c-1.11-1.57-2.96-2.42-5.53-2.56-2.16-.21-4.56-.33-7.2-.37-2.64-.03-5.13-.03-7.46,0-2.33.04-4.3.09-5.89.16-.35,0-.85.16-1.51.47-.66.31-.99.99-.99,2.03v40.9h-8.04Z"/>
      <path class="st0" d="M515.16,281.13v-19.51l-17.63-25.88-1.88-2.61h10.64l14.61,22.85,14.81-22.85h7.3l-2.29,2.92-17.63,25.56v15.86c.07.9,0,1.62-.21,2.14-.21.52-.56.9-1.04,1.15-.49.24-1.25.37-2.29.37h-4.38Z"/>
      <path class="st0" d="M548.55,281.13v-43.93c0-1.88.19-3.03.58-3.44.38-.42,1.34-.63,2.87-.63h5.74l17.22,38.29.21.73.21-.31.21-.73,17.22-37.98h6.05c1.46,0,2.42.16,2.87.47.45.31.68,1.2.68,2.66v41.63c0,.97-.09,1.67-.26,2.09-.18.42-.49.71-.94.89-.45.17-1.13.26-2.04.26h-4.9v-39.23l-.42,1.46-17.01,37.77h-5.43l-16.69-37.04-.31-1.46v38.5h-5.84Z"/>
    </g>
    <g>
      <path class="st1" d="M319.68,275.96c4.7-8.19-.18-16.28-2.22-18.13-.59-.54-1.73-1.65-3.07-2.98,1.08,1.49.95,3.58-.39,4.92l-32.66,32.66c4.22.9,8.71,1.07,13.34.33,9.55-1.53,17.85-6.86,23.35-14.34.16-.23.34-.49.56-.78.38-.55.75-1.11,1.1-1.67Z"/>
      <path class="st0" d="M288.88,220.93c-2.31,0-4.56.22-6.75.63-.27.05-.53.1-.79.16l3.22,3.22,21.21,21.21,8.24,8.24c.14.14.27.3.39.46,1.34,1.33,2.49,2.44,3.07,2.98,2.11,1.98,6.92,9.94,2.22,18.13,2.84-4.6,4.67-9.86,5.18-15.46,1.98-21.5-14.89-39.57-35.99-39.57Z"/>
      <path class="st0" d="M277.33,266.96c-1.58-2.95-2.47-6.31-2.47-9.88s.9-6.94,2.47-9.88c2.87-5.37,8.01-9.35,14.15-10.65l-9.12-9.12c-2.58-2.58-5.96-3.87-9.34-3.87s-6.76,1.29-9.34,3.87l-4.67,4.67-1.41,1.41-13.69,13.69-.55.55c-.43.43-.83.89-1.19,1.37-3.57,4.7-3.57,11.24,0,15.94.36.48.76.93,1.19,1.37l.55.55,13.69,13.69,1.41,1.41,4.67,4.67c2.58,2.58,5.96,3.87,9.34,3.87,3.38,0,6.76-1.29,9.34-3.87l9.12-9.12c-6.13-1.3-11.27-5.28-14.15-10.65Z"/>
    </g>
  </g>
</svg>