<?xml version="1.0" encoding="UTF-8"?>
<svg id="Layer_1" xmlns="http://www.w3.org/2000/svg" version="1.1" xmlns:xlink="http://www.w3.org/1999/xlink" viewBox="0 0 841.89 514.15">
  <!-- Generator: Adobe Illustrator 29.5.1, SVG Export Plug-In . SVG Version: 2.1.0 Build 141)  -->
  <defs>
    <style>
      .st0 {
        fill: url(#linear-gradient2);
      }

      .st1 {
        fill: url(#linear-gradient1);
      }

      .st2 {
        fill: url(#linear-gradient);
      }
    </style>
    <linearGradient id="linear-gradient" x1="410.08" y1="319.47" x2="516.16" y2="319.47" gradientUnits="userSpaceOnUse">
      <stop offset="0" stop-color="#00af67"/>
      <stop offset=".28" stop-color="#00ab65"/>
      <stop offset=".49" stop-color="#00a160"/>
      <stop offset=".69" stop-color="#009158"/>
      <stop offset=".88" stop-color="#007a4c"/>
      <stop offset="1" stop-color="#006643"/>
    </linearGradient>
    <linearGradient id="linear-gradient1" x1="410.08" y1="252.16" x2="524.99" y2="252.16" gradientUnits="userSpaceOnUse">
      <stop offset="0" stop-color="#009957"/>
      <stop offset="1" stop-color="#00af67"/>
    </linearGradient>
    <linearGradient id="linear-gradient2" x1="300.03" y1="274.86" x2="436.76" y2="274.86" gradientUnits="userSpaceOnUse">
      <stop offset="0" stop-color="#00af67"/>
      <stop offset=".38" stop-color="#00ac64"/>
      <stop offset=".64" stop-color="#00a35e"/>
      <stop offset=".8" stop-color="#009957"/>
    </linearGradient>
  </defs>
  <path class="st2" d="M510.95,324.54c12.36-21.56-.47-42.82-5.84-47.7-1.56-1.42-4.56-4.35-8.09-7.85,2.84,3.91,2.5,9.41-1.03,12.94l-85.92,85.92c11.1,2.36,22.91,2.82,35.1.87,25.12-4.02,46.97-18.05,61.42-37.71.41-.61.9-1.29,1.47-2.06,1-1.44,1.96-2.91,2.89-4.4Z"/>
  <path class="st1" d="M429.92,179.78c-6.07,0-12,.58-17.75,1.67-.7.13-1.39.27-2.09.42l8.46,8.46,55.78,55.78,21.68,21.68c.38.38.72.78,1.03,1.21,3.53,3.51,6.55,6.41,8.09,7.85,5.56,5.21,18.2,26.14,5.84,47.7,7.46-12.1,12.27-25.95,13.63-40.68,5.2-56.56-39.18-104.08-94.66-104.08Z"/>
  <path class="st0" d="M399.55,300.86c-4.14-7.75-6.5-16.6-6.5-26s2.36-18.25,6.5-26c7.56-14.13,21.08-24.6,37.21-28.03l-23.98-23.98c-6.78-6.78-15.67-10.18-24.56-10.18s-17.78,3.39-24.56,10.18l-12.29,12.29-3.71,3.71-36.01,36.01-1.43,1.43c-1.14,1.14-2.19,2.35-3.14,3.6-9.38,12.36-9.38,29.57,0,41.94.95,1.25,1.99,2.45,3.14,3.6l1.43,1.43,36.01,36.01,3.71,3.71,12.29,12.29c6.78,6.78,15.67,10.18,24.56,10.18,8.89,0,17.78-3.39,24.56-10.17l23.98-23.98c-16.13-3.42-29.65-13.89-37.21-28.02Z"/>
</svg>