<?xml version="1.0" encoding="UTF-8"?>
<svg id="Layer_1" xmlns="http://www.w3.org/2000/svg" version="1.1" xmlns:xlink="http://www.w3.org/1999/xlink" viewBox="0 0 841.89 514.15">
  <!-- Generator: Adobe Illustrator 29.5.1, SVG Export Plug-In . SVG Version: 2.1.0 Build 141)  -->
  <defs>
    <style>
      .st0 {
        fill: #fff;
      }

      .st1 {
        fill: url(#linear-gradient1);
      }

      .st2 {
        fill: url(#linear-gradient);
      }
    </style>
    <linearGradient id="linear-gradient" x1="-3.17" y1="249.91" x2="850.49" y2="249.91" gradientUnits="userSpaceOnUse">
      <stop offset="0" stop-color="#15a36e"/>
      <stop offset="1" stop-color="#158b6e"/>
    </linearGradient>
    <linearGradient id="linear-gradient1" x1="410.06" y1="294.93" x2="517.11" y2="294.93" gradientUnits="userSpaceOnUse">
      <stop offset="0" stop-color="#fff"/>
      <stop offset=".38" stop-color="#fcfcfc"/>
      <stop offset=".58" stop-color="#f4f5f5"/>
      <stop offset=".74" stop-color="#e7e7e8"/>
      <stop offset=".88" stop-color="#d3d5d6"/>
      <stop offset="1" stop-color="#bcbec0"/>
    </linearGradient>
  </defs>
  <rect class="st2" x="-3.17" y="-15.34" width="853.66" height="530.49"/>
  <g>
    <path class="st1" d="M511.86,300.05c12.47-21.75-.47-43.21-5.89-48.14-1.58-1.43-4.6-4.39-8.16-7.92,2.87,3.95,2.52,9.5-1.04,13.06l-86.71,86.71c11.21,2.38,23.12,2.84,35.42.87,25.35-4.06,47.4-18.22,61.98-38.06.42-.61.91-1.3,1.48-2.08,1.01-1.45,1.98-2.94,2.91-4.44Z"/>
    <path class="st0" d="M430.08,153.95c-6.12,0-12.11.59-17.91,1.68-.7.13-1.41.27-2.11.42l8.54,8.54,56.3,56.3,21.88,21.88c.38.38.73.79,1.04,1.22,3.56,3.54,6.61,6.47,8.16,7.92,5.61,5.26,18.37,26.38,5.89,48.14,7.53-12.21,12.39-26.18,13.75-41.05,5.25-57.08-39.54-105.04-95.54-105.04Z"/>
    <path class="st0" d="M399.43,276.15c-4.18-7.82-6.56-16.75-6.56-26.24s2.38-18.42,6.56-26.24c7.63-14.26,21.27-24.83,37.55-28.28l-24.2-24.2c-6.85-6.85-15.82-10.27-24.79-10.27s-17.95,3.42-24.79,10.27l-12.41,12.41-3.74,3.74-36.34,36.34-1.45,1.45c-1.15,1.15-2.21,2.37-3.16,3.63-9.47,12.48-9.47,29.84,0,42.32.96,1.26,2.01,2.48,3.16,3.63l1.45,1.45,36.34,36.34,3.74,3.74,12.41,12.41c6.85,6.85,15.82,10.27,24.79,10.27,8.97,0,17.95-3.42,24.79-10.27l24.2-24.2c-16.28-3.46-29.92-14.02-37.55-28.28Z"/>
  </g>
</svg>